<?xml version="1.0" encoding="UTF-8" standalone="no"?>
<svg
   xmlns:dc="http://purl.org/dc/elements/1.1/"
   xmlns:cc="http://creativecommons.org/ns#"
   xmlns:rdf="http://www.w3.org/1999/02/22-rdf-syntax-ns#"
   xmlns:svg="http://www.w3.org/2000/svg"
   xmlns="http://www.w3.org/2000/svg"
   xmlns:xlink="http://www.w3.org/1999/xlink"
   xmlns:sodipodi="http://sodipodi.sourceforge.net/DTD/sodipodi-0.dtd"
   xmlns:inkscape="http://www.inkscape.org/namespaces/inkscape"
   width="549.40625"
   height="549.40619"
   version="1.1"
   id="svg863"
   sodipodi:docname="Button_Rec_Green.svg"
   inkscape:version="0.92.3 (2405546, 2018-03-11)">
  <sodipodi:namedview
     pagecolor="#ffffff"
     bordercolor="#666666"
     borderopacity="1"
     objecttolerance="10"
     gridtolerance="10"
     guidetolerance="10"
     inkscape:pageopacity="0"
     inkscape:pageshadow="2"
     inkscape:window-width="1920"
     inkscape:window-height="1137"
     id="namedview865"
     showgrid="false"
     inkscape:zoom="0.97641089"
     inkscape:cx="40.924377"
     inkscape:cy="285.33599"
     inkscape:window-x="1912"
     inkscape:window-y="-8"
     inkscape:window-maximized="1"
     inkscape:current-layer="svg863"
     inkscape:snap-bbox="false"
     fit-margin-top="0"
     fit-margin-left="0"
     fit-margin-right="0"
     fit-margin-bottom="0" />
  <defs
     id="defs850">
    <filter
       id="filter3874"
       style="color-interpolation-filters:sRGB">
      <feGaussianBlur
         id="feGaussianBlur3876"
         stdDeviation="13.735156" />
    </filter>
    <clipPath
       id="clipPath3882"
       clipPathUnits="userSpaceOnUse">
      <path
         id="path3884"
         d="M 127.03123,-1.428571 C 56.86282,-1.428571 1.7e-5,55.434223 1.7e-5,125.60269 v 295.34372 c 0,70.16846 56.862803,127.03125 127.031213,127.03125 h 295.34383 c 70.16846,0 127.03113,-56.86279 127.03113,-127.03125 V 125.60269 c 0,-70.168466 -56.86267,-127.031261 -127.03113,-127.031261 z"
         inkscape:connector-curvature="0"
         style="fill:none;stroke-width:20" />
    </clipPath>
    <linearGradient
       id="linearGradient3852">
      <stop
         stop-color="#dbe3db"
         id="stop3854"
         offset="0" />
      <stop
         stop-color="#dbe3db"
         stop-opacity="0"
         id="stop3856"
         offset="1" />
    </linearGradient>
    <linearGradient
       y2="427.99649"
       x2="171.30943"
       y1="8.1305742"
       x1="171.03052"
       id="linearGradient3858"
       xlink:href="#linearGradient3852"
       gradientTransform="scale(1.7288557,0.57841726)"
       gradientUnits="userSpaceOnUse" />
    <linearGradient
       y2="1098.504"
       x2="87.243507"
       y1="1299.3474"
       x1="84.775246"
       id="linearGradient3864"
       xlink:href="#linearGradient3852"
       gradientTransform="scale(2.5105231,0.39832337)"
       gradientUnits="userSpaceOnUse" />
    <linearGradient
       gradientUnits="userSpaceOnUse"
       gradientTransform="matrix(1.7288557,0,0,0.57841726,-9.999999,-10.000001)"
       y2="427.99649"
       x2="171.30943"
       y1="8.1305742"
       x1="171.03052"
       id="linearGradient3858-8"
       xlink:href="#linearGradient3852" />
  </defs>
  <metadata
     id="metadata7">image/svg+xml<rdf:RDF>
  <cc:Work
     rdf:about="">
    <dc:format>image/svg+xml</dc:format>
    <dc:type
       rdf:resource="http://purl.org/dc/dcmitype/StillImage" />
    <dc:title></dc:title>
  </cc:Work>
</rdf:RDF>
</metadata>
  <path
     inkscape:connector-curvature="0"
     style="fill:#ffffff;fill-rule:nonzero;stroke-width:1.62399995"
     d="M 127.03122,0 C 56.86279,0 0,56.862796 0,127.03125 v 295.34378 c 0,70.16843 56.86279,127.03116 127.03122,127.03116 h 295.34375 c 70.16846,0 127.03128,-56.86273 127.03128,-127.03116 V 127.03125 C 549.40625,56.862796 492.54343,0 422.37497,0 Z"
     id="path3077-6" />
  <g
     id="g861"
     transform="translate(-10.000002,-9.999999)">
    <title
       id="title853">Layer 1</title>
    <path
       d="m 129.88838,61.857143 c -33.138784,0 -58.03124,24.892475 -58.03124,58.031257 v 295.34375 c 0,33.13879 24.892456,58.03125 58.03124,58.03125 h 295.34377 c 33.13879,0 58.03125,-24.89246 58.03125,-58.03125 V 119.8884 c 0,-33.138782 -24.89246,-58.031257 -58.03125,-58.031257 z"
       id="path3075"
       inkscape:connector-curvature="0"
       style="fill:#212020;fill-rule:nonzero;stroke-width:1.62399995" />
    <path
       d="M 127.03122,-1e-6 C 56.862792,-1e-6 0,56.862793 0,127.03125 v 295.34378 c 0,70.16843 56.862793,127.03116 127.03122,127.03116 h 295.34375 c 70.16846,0 127.03128,-56.86273 127.03128,-127.03116 V 127.03125 C 549.40625,56.862793 492.54343,-9.9999994e-7 422.37497,-9.9999994e-7 Z"
       id="path3077"
       inkscape:connector-curvature="0"
       style="fill:#191818;fill-rule:nonzero;stroke-width:1.62399995" />
    <path
       id="path3862"
       d="m 134.17413,18.544399 c -56.374997,0 -101.343987,44.968979 -101.343987,101.344001 v 32.188 c 49.813961,6.36102 73.266967,25.77699 123.312987,29.78099 71.42798,5.71402 97.12896,5.719 162.84301,-17.13899 65.71497,-22.85698 -14.27203,-62.87001 197.15699,-54.29901 4.82995,0.196 9.59301,0.25699 14.31201,0.407 C 525.93622,58.770383 482.83612,18.544401 429.51813,18.544401 h -295.344 z"
       style="fill:url(#linearGradient3858);fill-rule:nonzero;stroke-width:1.62399995;paint-order:markers fill stroke"
       inkscape:connector-curvature="0" />
    <path
       id="path3079"
       d="m 504.25024,432.01782 c -12.82571,-0.0565 -21.8572,5.37946 -65.25003,19.84375 -77.14282,25.7143 -200.00923,34.28571 -211.43776,20 -11.42858,-14.2857 -68.57141,-22.85266 -120,-14.28125 -29.943889,4.99066 -17.265072,22.56153 -33.031223,34.12497 12.894936,5.89292 27.282753,9.15634 42.499973,9.15634 h 295.34401 c 44.91346,0 82.6001,-28.54327 96.06244,-68.65631 -1.46243,-0.12097 -2.85046,-0.18158 -4.18741,-0.1875 z"
       inkscape:connector-curvature="0"
       style="fill:url(#linearGradient3864);fill-rule:nonzero;stroke-width:1.62399995" />
    <g
       display="inline"
       id="layer2"
       style="display:inline">
      <path
         stroke-miterlimit="4"
         clip-path="url(#clipPath3882)"
         d="M -462.96878,1.428571 C -533.13721,1.428571 -590,58.291362 -590,128.45984 v 295.34369 c 0,70.16845 56.86279,127.03131 127.03122,127.03131 H -167.625 c 70.168457,0 127.03125,-56.86286 127.03125,-127.03131 V 128.45984 C -40.59375,58.291362 -97.456543,1.428571 -167.625,1.428571 Z"
         id="path3872"
         inkscape:connector-curvature="0"
         style="fill:none;stroke:#000000;stroke-width:20;stroke-miterlimit:4;filter:url(#filter3874)" />
    </g>
  </g>
  <rect
     style="fill:#008000;stroke-width:1.28695381"
     id="rect867"
     width="400.31088"
     height="54.123665"
     x="66.590088"
     y="370.90805" />
  <ellipse
     style="fill:#ff0000;fill-opacity:1;stroke-width:0.84319133;paint-order:markers fill stroke"
     id="path869-9"
     cx="264.6972"
     cy="211.07379"
     rx="118.91079"
     ry="120.43224" />
  <path
     inkscape:connector-curvature="0"
     id="path3862-3"
     d="m 124.17413,8.544398 c -56.374999,0 -101.343989,44.968979 -101.343989,101.344002 v 32.188 c 49.81396,6.36102 73.266969,25.77699 123.312989,29.78099 71.42798,5.71402 97.12896,5.719 162.84301,-17.13899 65.71497,-22.85698 -14.27203,-62.870009 197.15699,-54.29901 4.82995,0.196 9.59301,0.25699 14.31201,0.407 C 515.93622,48.770377 472.83612,8.5444 419.51813,8.5444 h -295.344 z"
     style="fill:url(#linearGradient3858-8);fill-rule:nonzero;stroke-width:1.62399995;paint-order:markers fill stroke" />
</svg>
