<?xml version="1.0" encoding="UTF-8" standalone="no"?>
<svg
   xmlns:dc="http://purl.org/dc/elements/1.1/"
   xmlns:cc="http://creativecommons.org/ns#"
   xmlns:rdf="http://www.w3.org/1999/02/22-rdf-syntax-ns#"
   xmlns:svg="http://www.w3.org/2000/svg"
   xmlns="http://www.w3.org/2000/svg"
   xmlns:xlink="http://www.w3.org/1999/xlink"
   xmlns:sodipodi="http://sodipodi.sourceforge.net/DTD/sodipodi-0.dtd"
   xmlns:inkscape="http://www.inkscape.org/namespaces/inkscape"
   width="549.40625"
   height="549.40625"
   version="1.1"
   id="svg863"
   sodipodi:docname="Button_150.svg"
   inkscape:version="0.92.4 (5da689c313, 2019-01-14)">
  <sodipodi:namedview
     pagecolor="#ffffff"
     bordercolor="#666666"
     borderopacity="1"
     objecttolerance="10"
     gridtolerance="10"
     guidetolerance="10"
     inkscape:pageopacity="0"
     inkscape:pageshadow="2"
     inkscape:window-width="1366"
     inkscape:window-height="705"
     id="namedview865"
     showgrid="false"
     inkscape:zoom="0.97923895"
     inkscape:cx="274.70312"
     inkscape:cy="274.70312"
     inkscape:window-x="-8"
     inkscape:window-y="-8"
     inkscape:window-maximized="1"
     inkscape:current-layer="svg863" />
  <defs
     id="defs850">
    <filter
       color-interpolation-filters="sRGB"
       id="filter3874">
      <feGaussianBlur
         id="feGaussianBlur3876"
         stdDeviation="13.735156" />
    </filter>
    <clipPath
       id="clipPath3882"
       clipPathUnits="userSpaceOnUse">
      <path
         fill="none"
         stroke-width="20"
         id="path3884"
         d="m127.031235,-1.428571c-70.168415,0 -127.031218,56.862794 -127.031218,127.031263l0,295.343719c0,70.168457 56.862803,127.03125 127.031218,127.03125l295.343826,0c70.168457,0 127.031128,-56.862793 127.031128,-127.03125l0,-295.343719c0,-70.168468 -56.862671,-127.031263 -127.031128,-127.031263l-295.343826,0z" />
    </clipPath>
    <linearGradient
       id="linearGradient3852">
      <stop
         stop-color="#dbe3db"
         id="stop3854"
         offset="0" />
      <stop
         stop-color="#dbe3db"
         stop-opacity="0"
         id="stop3856"
         offset="1" />
    </linearGradient>
    <linearGradient
       y2="427.99648"
       x2="171.30943"
       y1="8.1305746"
       x1="171.03052"
       id="linearGradient3858"
       xlink:href="#linearGradient3852"
       gradientTransform="matrix(2.658398,0,0,0.57841726,-142.23811,0)"
       gradientUnits="userSpaceOnUse" />
    <linearGradient
       y2="1098.504"
       x2="87.243509"
       y1="1299.3474"
       x1="84.77525"
       id="linearGradient3864"
       xlink:href="#linearGradient3852"
       gradientTransform="matrix(3.6508695,0,0,0.39832337,-111.46536,-24.508829)"
       gradientUnits="userSpaceOnUse" />
  </defs>
  <metadata
     id="metadata7">image/svg+xml<rdf:RDF>
  <cc:Work
     rdf:about="">
    <dc:format>image/svg+xml</dc:format>
    <dc:type
       rdf:resource="http://purl.org/dc/dcmitype/StillImage" />
    <dc:title></dc:title>
  </cc:Work>
</rdf:RDF>
</metadata>
  <g
     id="g861">
    <title
       id="title853">Layer 1</title>
    <path
       fill="#212020"
       fill-rule="nonzero"
       stroke-width="1.624"
       d="m129.888382,61.857143c-33.138786,0 -58.031242,24.892475 -58.031242,58.031254l0,295.34375c0,33.138794 24.892456,58.03125 58.031242,58.03125l295.343765,0c33.138794,0 58.03125,-24.892456 58.03125,-58.03125l0,-295.34375c0,-33.138779 -24.892456,-58.031254 -58.03125,-58.031254l-295.343765,0z"
       id="path3075" />
    <path
       d="M 63.758495,-9.9999996e-7 C -40.842025,-9.9999996e-7 -125.60775,52.000918 -125.60775,116.16984 v 270.09134 c 0,64.16889 84.765726,116.16975 189.366245,116.16975 H 504.02928 c 104.60057,0 189.36634,-52.00086 189.36634,-116.16975 V 116.16984 C 693.39562,52.000918 608.62985,-9.999999e-7 504.02928,-9.999999e-7 Z"
       id="path3077"
       inkscape:connector-curvature="0"
       style="fill:#191818;fill-rule:nonzero;stroke-width:1.89615333" />
    <path
       id="path3862"
       d="m 64.076534,18.544399 c -86.685771,0 -155.832939,44.968979 -155.832939,101.344001 v 32.188 c 76.597102,6.36102 112.659925,25.77699 189.613855,29.78099 109.83219,5.71402 149.35165,5.719 250.39774,-17.13899 101.04749,-22.85698 -21.94559,-62.87001 303.16106,-54.29901 7.42684,0.196 14.75084,0.25699 22.00706,0.407 C 666.47473,58.770383 600.20129,18.544401 518.21616,18.544401 H 64.076534 Z"
       style="fill:url(#linearGradient3858);fill-rule:nonzero;stroke-width:2.01380134"
       inkscape:connector-curvature="0" />
    <path
       id="path3079"
       d="m 621.82876,407.50899 c -18.65151,-0.0565 -31.78534,5.37946 -94.88833,19.84375 -112.18315,25.7143 -290.85875,34.28571 -307.4784,20 -16.61977,-14.2857 -99.71838,-22.85266 -174.507201,-14.28125 -43.5452111,4.99066 -25.107339,22.56153 -48.0348943,34.12497 18.7521583,5.89292 39.6753013,9.15634 61.8046023,9.15634 H 488.22165 c 65.31434,0 120.11924,-28.54327 139.69654,-68.65631 -2.1267,-0.12097 -4.14522,-0.18158 -6.08943,-0.1875 z"
       style="fill:url(#linearGradient3864);fill-rule:nonzero;stroke-width:1.95840299"
       inkscape:connector-curvature="0" />
    <g
       display="inline"
       id="layer2">
      <path
         fill="none"
         stroke="#000000"
         stroke-width="20"
         stroke-miterlimit="4"
         filter="url(#filter3874)"
         clip-path="url(#clipPath3882)"
         d="m-462.968781,1.428571c-70.168427,0 -127.031219,56.862791 -127.031219,127.031267l0,295.343689c0,70.168457 56.862793,127.031311 127.031219,127.031311l295.343781,0c70.168457,0 127.03125,-56.862854 127.03125,-127.031311l0,-295.343689c0,-70.168476 -56.862793,-127.031267 -127.03125,-127.031267l-295.343781,0z"
         id="path3872" />
    </g>
  </g>
</svg>
