<?xml version="1.0" encoding="UTF-8" standalone="no"?>
<svg
   xmlns:dc="http://purl.org/dc/elements/1.1/"
   xmlns:cc="http://creativecommons.org/ns#"
   xmlns:rdf="http://www.w3.org/1999/02/22-rdf-syntax-ns#"
   xmlns:svg="http://www.w3.org/2000/svg"
   xmlns="http://www.w3.org/2000/svg"
   xmlns:xlink="http://www.w3.org/1999/xlink"
   xmlns:sodipodi="http://sodipodi.sourceforge.net/DTD/sodipodi-0.dtd"
   xmlns:inkscape="http://www.inkscape.org/namespaces/inkscape"
   width="549.40625"
   height="549.40625"
   version="1.1"
   id="svg863"
   sodipodi:docname="Button_Wifi_green.svg"
   inkscape:version="0.92.4 (5da689c313, 2019-01-14)">
  <sodipodi:namedview
     pagecolor="#ffffff"
     bordercolor="#666666"
     borderopacity="1"
     objecttolerance="10"
     gridtolerance="10"
     guidetolerance="10"
     inkscape:pageopacity="0"
     inkscape:pageshadow="2"
     inkscape:window-width="1920"
     inkscape:window-height="1137"
     id="namedview865"
     showgrid="false"
     inkscape:zoom="0.97923895"
     inkscape:cx="51.570656"
     inkscape:cy="274.70312"
     inkscape:window-x="-8"
     inkscape:window-y="-8"
     inkscape:window-maximized="1"
     inkscape:current-layer="svg863" />
  <defs
     id="defs850">
    <filter
       color-interpolation-filters="sRGB"
       id="filter3874">
      <feGaussianBlur
         id="feGaussianBlur3876"
         stdDeviation="13.735156" />
    </filter>
    <clipPath
       id="clipPath3882"
       clipPathUnits="userSpaceOnUse">
      <path
         fill="none"
         stroke-width="20"
         id="path3884"
         d="m127.031235,-1.428571c-70.168415,0 -127.031218,56.862794 -127.031218,127.031263l0,295.343719c0,70.168457 56.862803,127.03125 127.031218,127.03125l295.343826,0c70.168457,0 127.031128,-56.862793 127.031128,-127.03125l0,-295.343719c0,-70.168468 -56.862671,-127.031263 -127.031128,-127.031263l-295.343826,0z" />
    </clipPath>
    <linearGradient
       id="linearGradient3852">
      <stop
         stop-color="#dbe3db"
         id="stop3854"
         offset="0" />
      <stop
         stop-color="#dbe3db"
         stop-opacity="0"
         id="stop3856"
         offset="1" />
    </linearGradient>
    <linearGradient
       y2="427.99648"
       x2="171.30943"
       y1="8.1305746"
       x1="171.03052"
       id="linearGradient3858"
       xlink:href="#linearGradient3852"
       gradientTransform="scale(1.7288557,0.57841726)"
       gradientUnits="userSpaceOnUse" />
    <linearGradient
       y2="1098.504"
       x2="87.243509"
       y1="1299.3474"
       x1="84.77525"
       id="linearGradient3864"
       xlink:href="#linearGradient3852"
       gradientTransform="scale(2.5105231,0.39832337)"
       gradientUnits="userSpaceOnUse" />
    <linearGradient
       gradientUnits="userSpaceOnUse"
       gradientTransform="matrix(1.7288557,0,0,0.57841726,2.9999999e-6,-2e-6)"
       y2="427.99648"
       x2="171.30943"
       y1="8.1305747"
       x1="171.03052"
       id="linearGradient3858-8"
       xlink:href="#linearGradient3852" />
    <linearGradient
       gradientUnits="userSpaceOnUse"
       gradientTransform="matrix(1.7288557,0,0,0.57841726,-157.0561,22.797815)"
       y2="427.99648"
       x2="171.30943"
       y1="8.1305747"
       x1="171.03052"
       id="linearGradient3858-0"
       xlink:href="#linearGradient3852" />
    <linearGradient
       gradientUnits="userSpaceOnUse"
       gradientTransform="matrix(1.7288557,0,0,0.57841726,2.9999999e-6,2e-6)"
       y2="427.99649"
       x2="171.30943"
       y1="8.1305742"
       x1="171.03052"
       id="linearGradient3858-8-6"
       xlink:href="#linearGradient3852" />
    <linearGradient
       gradientUnits="userSpaceOnUse"
       gradientTransform="matrix(2.5105231,0,0,0.39832337,4e-6,-4e-6)"
       y2="1098.504"
       x2="87.243508"
       y1="1299.3474"
       x1="84.775249"
       id="linearGradient3864-3"
       xlink:href="#linearGradient3852" />
    <linearGradient
       gradientUnits="userSpaceOnUse"
       gradientTransform="matrix(1.7288557,0,0,0.57841726,0,-3.9999999e-6)"
       y2="427.99649"
       x2="171.30943"
       y1="8.1305742"
       x1="171.03052"
       id="linearGradient3858-8-0"
       xlink:href="#linearGradient3852" />
    <linearGradient
       gradientUnits="userSpaceOnUse"
       gradientTransform="matrix(2.5105231,0,0,0.39832337,1.1e-5,-9e-6)"
       y2="1098.504"
       x2="87.243507"
       y1="1299.3474"
       x1="84.775246"
       id="linearGradient3864-3-1"
       xlink:href="#linearGradient3852" />
    <linearGradient
       gradientUnits="userSpaceOnUse"
       gradientTransform="scale(1.7288557,0.57841726)"
       y2="427.99649"
       x2="171.30943"
       y1="8.1305742"
       x1="171.03052"
       id="linearGradient3858-8-5"
       xlink:href="#linearGradient3852" />
    <linearGradient
       gradientUnits="userSpaceOnUse"
       gradientTransform="matrix(2.5105231,0,0,0.39832337,6e-6,-8e-6)"
       y2="1098.504"
       x2="87.243507"
       y1="1299.3474"
       x1="84.775246"
       id="linearGradient3864-3-3"
       xlink:href="#linearGradient3852" />
  </defs>
  <metadata
     id="metadata7">image/svg+xml<rdf:RDF>
  <cc:Work
     rdf:about="">
    <dc:format>image/svg+xml</dc:format>
    <dc:type
       rdf:resource="http://purl.org/dc/dcmitype/StillImage" />
    <dc:title></dc:title>
  </cc:Work>
</rdf:RDF>
</metadata>
  <g
     id="g861"
     transform="translate(-4e-6,-2e-6)">
    <title
       id="title853">Layer 1</title>
    <path
       d="m 129.88838,61.857143 c -33.138784,0 -58.03124,24.892475 -58.03124,58.031257 v 295.34375 c 0,33.13879 24.892456,58.03125 58.03124,58.03125 h 295.34377 c 33.13879,0 58.03125,-24.89246 58.03125,-58.03125 V 119.8884 c 0,-33.138782 -24.89246,-58.031257 -58.03125,-58.031257 z"
       id="path3075"
       inkscape:connector-curvature="0"
       style="fill:#212020;fill-rule:nonzero;stroke-width:1.62399995" />
    <path
       d="M 127.03122,-1e-6 C 56.862792,-1e-6 0,56.862793 0,127.03125 v 295.34378 c 0,70.16843 56.862793,127.03116 127.03122,127.03116 h 295.34375 c 70.16846,0 127.03128,-56.86273 127.03128,-127.03116 V 127.03125 C 549.40625,56.862793 492.54343,-9.9999994e-7 422.37497,-9.9999994e-7 Z"
       id="path3077"
       inkscape:connector-curvature="0"
       style="fill:#191818;fill-rule:nonzero;stroke-width:1.62399995" />
    <path
       id="path3862"
       d="m 134.17413,18.544399 c -56.374997,0 -101.343987,44.968979 -101.343987,101.344001 v 32.188 c 49.813961,6.36102 73.266967,25.77699 123.312987,29.78099 71.42798,5.71402 97.12896,5.719 162.84301,-17.13899 65.71497,-22.85698 -14.27203,-62.87001 197.15699,-54.29901 4.82995,0.196 9.59301,0.25699 14.31201,0.407 C 525.93622,58.770383 482.83612,18.544401 429.51813,18.544401 h -295.344 z"
       style="fill:url(#linearGradient3858);fill-rule:nonzero;stroke-width:1.62399995;paint-order:markers fill stroke"
       inkscape:connector-curvature="0" />
    <path
       id="path3079"
       d="m 504.25024,432.01782 c -12.82571,-0.0565 -21.8572,5.37946 -65.25003,19.84375 -77.14282,25.7143 -200.00923,34.28571 -211.43776,20 -11.42858,-14.2857 -68.57141,-22.85266 -120,-14.28125 -29.943889,4.99066 -17.265072,22.56153 -33.031223,34.12497 12.894936,5.89292 27.282753,9.15634 42.499973,9.15634 h 295.34401 c 44.91346,0 82.6001,-28.54327 96.06244,-68.65631 -1.46243,-0.12097 -2.85046,-0.18158 -4.18741,-0.1875 z"
       style="fill:url(#linearGradient3864);fill-rule:nonzero;stroke-width:1.62399995"
       inkscape:connector-curvature="0" />
    <g
       display="inline"
       id="layer2"
       style="display:inline">
      <path
         stroke-miterlimit="4"
         clip-path="url(#clipPath3882)"
         d="M -462.96878,1.428571 C -533.13721,1.428571 -590,58.291362 -590,128.45984 v 295.34369 c 0,70.16845 56.86279,127.03131 127.03122,127.03131 H -167.625 c 70.168457,0 127.03125,-56.86286 127.03125,-127.03131 V 128.45984 C -40.59375,58.291362 -97.456543,1.428571 -167.625,1.428571 Z"
         id="path3872"
         inkscape:connector-curvature="0"
         style="fill:none;stroke:#000000;stroke-width:20;stroke-miterlimit:4;filter:url(#filter3874)" />
    </g>
  </g>
  <path
     inkscape:connector-curvature="0"
     id="path3862-3"
     d="m 134.17413,18.544397 c -56.374997,0 -101.343987,44.968979 -101.343987,101.344003 v 32.188 c 49.81396,6.36102 73.266967,25.77699 123.312987,29.78099 71.42798,5.71402 97.12896,5.719 162.84301,-17.13899 65.71497,-22.85698 -14.27203,-62.87001 197.15699,-54.29901 4.82995,0.196 9.59301,0.25699 14.31201,0.407 C 525.93622,58.770376 482.83612,18.544399 429.51813,18.544399 h -295.344 z"
     style="fill:url(#linearGradient3858-8);fill-rule:nonzero;stroke-width:1.62399995;paint-order:markers fill stroke" />
  <g
     inkscape:groupmode="layer"
     id="layer1"
     inkscape:label="Layer 1" />
  <path
     inkscape:connector-curvature="0"
     style="fill:url(#linearGradient3864-3);fill-rule:nonzero;stroke-width:1.62399995"
     id="path3079-7"
     d="m 504.25024,432.01782 c -12.82571,-0.0565 -21.8572,5.37946 -65.25003,19.84375 -77.14282,25.7143 -200.00922,34.28571 -211.43775,20 -11.42858,-14.2857 -68.57141,-22.85266 -120,-14.28125 -29.943891,4.99066 -17.265074,22.56153 -33.031225,34.12497 12.894936,5.89292 27.282755,9.15634 42.499975,9.15634 h 295.344 c 44.91346,0 82.6001,-28.54327 96.06244,-68.65631 -1.46243,-0.12097 -2.85046,-0.18158 -4.18741,-0.1875 z" />
  <g
     transform="matrix(3.449403,0,0,4.0762233,-161.20385,-232.24604)"
     id="g3"
     style="fill:#88aa00">
    <path
       inkscape:connector-curvature="0"
       id="path1"
       transform="matrix(4.3124979,0,0,4.3124979,59,76.047338)"
       d="M 8.6020801,22.493963 H 23.497906 V 24.094 H 8.6020801 Z M 11.00107,6.7979752 h 9.997872 l 2.398989,14.3959998 h -6.597946 v -6.097963 c 0.700004,-0.300049 1.300003,-1.100037 1.300003,-1.899048 0,-1.199952 -0.999989,-2.099977 -2.099982,-2.099977 -1.199998,0 -2.098976,1 -2.098976,2.099977 0,0.899048 0.499995,1.598999 1.298997,1.899048 v 6.097963 H 8.6020801 Z M 24.897914,3.3989874 c 0.199979,0 0.299984,0 0.39999,0.099976 1.398969,0.800049 2.19898,2.3990481 2.298954,4.0989997 0,1.7000132 -0.699974,3.2990119 -1.99897,4.1990369 -0.100004,0.200012 -0.299984,0.200012 -0.499995,0.200012 -0.39999,0 -0.799978,-0.300049 -0.799978,-0.800049 0,-0.199951 0.100004,-0.399963 0.19998,-0.599976 l 0.100004,-0.09998 c 0.899985,-0.6000367 1.399979,-1.6990367 1.399979,-2.8990489 0,-1.1999512 -0.59997,-2.1989751 -1.499983,-2.7989507 -0.19998,-0.1000366 -0.39999,-0.4000244 -0.39999,-0.6000366 0.100004,-0.3999636 0.39999,-0.7999883 0.800009,-0.7999883 z m -17.7958168,0 c 0.4000201,0 0.7000041,0.4000247 0.7000041,0.9000249 0,0.2999878 -0.2000098,0.5 -0.3999891,0.5999756 -0.8990069,0.5999756 -1.4990063,1.5989995 -1.4990063,2.7990117 0,1.2000122 0.4999943,2.2990122 1.3990011,2.8989874 0,0 0.1000052,0 0.1000052,0.09998 0.1999793,0.200012 0.1999793,0.400024 0.1999793,0.600037 0,0.399963 -0.3999891,0.799987 -0.7989717,0.799987 -0.2000098,0 -0.3000145,-0.09998 -0.4999942,-0.200012 C 5.0031225,10.997012 4.2031438,9.3980128 4.3031485,7.6979996 4.3031485,5.9979874 5.2031323,4.3989879 6.60311,3.5989999 6.8031198,3.3989874 7.0030996,3.3989874 7.1020972,3.3989874 Z M 26.896884,0 c 0.199979,-7.3177944e-8 0.39999,-7.3177944e-8 0.499994,0.09997564 2.698975,1.40002466 4.498941,4.19903666 4.598947,7.49798736 0.100005,3.199037 -1.599988,6.098024 -4.098953,7.698 -0.100004,0.100037 -0.300014,0.200012 -0.499994,0.200012 -0.499994,0 -0.899983,-0.399963 -0.899983,-0.799988 0,-0.299987 0.09997,-0.5 0.299984,-0.700012 0.100005,0 0.100005,-0.09997 0.100005,-0.09997 2.099983,-1.299013 3.498953,-3.699037 3.398948,-6.298037 C 30.195826,4.9989635 28.796857,2.7990119 26.696873,1.5999759 26.296885,1.5000003 26.097882,1.2999881 25.997878,1 V 0.89996336 C 25.997878,0.39996339 26.396889,-7.3177944e-8 26.896884,0 Z M 5.1031272,0 C 5.6031215,-7.3177944e-8 6.0031111,0.39996339 6.0031111,0.89996336 V 1 c 0,0.2999881 -0.1999798,0.5999759 -0.5999995,0.7000126 C 3.3031601,2.8989874 1.8041537,5.0990001 1.8041539,7.6979996 1.7041793,10.297 3.1041572,12.696963 5.2031323,13.995975 l 0.1000047,0.100037 c 0.1999798,0.199951 0.2999845,0.399963 0.2999845,0.699951 0,0.5 -0.3999892,0.900024 -0.8999834,0.800049 -0.2000099,0 -0.3999896,-0.100037 -0.4999943,-0.200012 C 1.6041743,13.695987 -0.09581838,10.896975 0.00418661,7.597963 0.10419154,4.2990123 1.9041588,1.5999759 4.6031329,0.09997564 4.8031427,-7.3177944e-8 4.9031174,-7.3177944e-8 5.1031272,0 Z"
       style="fill:#88aa00" />
  </g>
  <path
     inkscape:connector-curvature="0"
     id="path3862-3-3"
     d="m 134.17413,18.544399 c -56.375004,0 -101.343991,44.968979 -101.343991,101.344001 v 32.188 c 49.813957,6.36102 73.266971,25.77699 123.312991,29.78099 71.42798,5.71402 97.12896,5.719 162.84301,-17.13899 65.71497,-22.85698 -14.27203,-62.87001 197.15699,-54.29901 4.82995,0.196 9.59301,0.25699 14.31201,0.407 C 525.93622,58.770378 482.83612,18.544401 429.51813,18.544401 h -295.344 z"
     style="fill:url(#linearGradient3858-8-5);fill-rule:nonzero;stroke-width:1.62399995;paint-order:markers fill stroke" />
  <path
     inkscape:connector-curvature="0"
     style="fill:url(#linearGradient3864-3-3);fill-rule:nonzero;stroke-width:1.62399995"
     id="path3079-7-3"
     d="m 504.25024,432.01782 c -12.82571,-0.0565 -21.8572,5.37946 -65.25003,19.84375 -77.14282,25.7143 -200.00922,34.28571 -211.43775,20 -11.42858,-14.2857 -68.57141,-22.85266 -120,-14.28125 -29.943894,4.99066 -17.265074,22.56153 -33.031224,34.12497 12.89493,5.89292 27.282754,9.15634 42.499974,9.15634 h 295.344 c 44.91346,0 82.6001,-28.54327 96.06244,-68.65631 -1.46243,-0.12097 -2.85046,-0.18158 -4.18741,-0.1875 z" />
</svg>
