<?xml version="1.0" encoding="UTF-8" standalone="no"?>
<svg
   xmlns:dc="http://purl.org/dc/elements/1.1/"
   xmlns:cc="http://creativecommons.org/ns#"
   xmlns:rdf="http://www.w3.org/1999/02/22-rdf-syntax-ns#"
   xmlns:svg="http://www.w3.org/2000/svg"
   xmlns="http://www.w3.org/2000/svg"
   xmlns:xlink="http://www.w3.org/1999/xlink"
   xmlns:sodipodi="http://sodipodi.sourceforge.net/DTD/sodipodi-0.dtd"
   xmlns:inkscape="http://www.inkscape.org/namespaces/inkscape"
   width="1157.021"
   height="262.44864"
   version="1.1"
   id="svg863"
   sodipodi:docname="Button_Sampler.svg"
   inkscape:version="0.92.4 (5da689c313, 2019-01-14)">
  <sodipodi:namedview
     pagecolor="#ffffff"
     bordercolor="#666666"
     borderopacity="1"
     objecttolerance="10"
     gridtolerance="10"
     guidetolerance="10"
     inkscape:pageopacity="0"
     inkscape:pageshadow="2"
     inkscape:window-width="1920"
     inkscape:window-height="1137"
     id="namedview865"
     showgrid="false"
     inkscape:zoom="0.97923895"
     inkscape:cx="627.83754"
     inkscape:cy="17.995751"
     inkscape:window-x="-8"
     inkscape:window-y="-8"
     inkscape:window-maximized="1"
     inkscape:current-layer="svg863"
     fit-margin-top="0"
     fit-margin-left="0"
     fit-margin-right="0"
     fit-margin-bottom="0" />
  <defs
     id="defs850">
    <filter
       id="filter3874"
       style="color-interpolation-filters:sRGB">
      <feGaussianBlur
         id="feGaussianBlur3876"
         stdDeviation="13.735156" />
    </filter>
    <clipPath
       id="clipPath3882"
       clipPathUnits="userSpaceOnUse">
      <path
         id="path3884"
         d="M 127.03123,-1.428571 C 56.86282,-1.428571 1.7e-5,55.434223 1.7e-5,125.60269 v 295.34372 c 0,70.16846 56.862803,127.03125 127.031213,127.03125 h 295.34383 c 70.16846,0 127.03113,-56.86279 127.03113,-127.03125 V 125.60269 c 0,-70.168466 -56.86267,-127.031261 -127.03113,-127.031261 z"
         inkscape:connector-curvature="0"
         style="fill:none;stroke-width:20" />
    </clipPath>
    <linearGradient
       id="linearGradient3852">
      <stop
         stop-color="#dbe3db"
         id="stop3854"
         offset="0" />
      <stop
         stop-color="#dbe3db"
         stop-opacity="0"
         id="stop3856"
         offset="1" />
    </linearGradient>
    <linearGradient
       y2="427.99649"
       x2="171.30943"
       y1="8.1305742"
       x1="171.03052"
       id="linearGradient3858"
       xlink:href="#linearGradient3852"
       gradientTransform="matrix(2.658398,0,0,0.57841726,-142.23811,0)"
       gradientUnits="userSpaceOnUse" />
    <linearGradient
       y2="1098.504"
       x2="87.243507"
       y1="1299.3474"
       x1="84.775253"
       id="linearGradient3864"
       xlink:href="#linearGradient3852"
       gradientTransform="matrix(3.6508695,0,0,0.39832337,-111.46536,-24.508829)"
       gradientUnits="userSpaceOnUse" />
    <linearGradient
       y2="427.99649"
       x2="171.30943"
       y1="8.1305742"
       x1="171.03052"
       id="linearGradient3858-0"
       xlink:href="#linearGradient3852"
       gradientTransform="matrix(3.7582381,0,0,0.26620456,-41.515788,6.009722)"
       gradientUnits="userSpaceOnUse" />
    <linearGradient
       y2="427.99649"
       x2="171.30943"
       y1="8.1305742"
       x1="171.03052"
       id="linearGradient3858-0-8"
       xlink:href="#linearGradient3852"
       gradientTransform="matrix(3.7582381,0,0,0.26620456,-41.515826,6.009722)"
       gradientUnits="userSpaceOnUse" />
  </defs>
  <metadata
     id="metadata7">image/svg+xml<rdf:RDF>
  <cc:Work
     rdf:about="">
    <dc:format>image/svg+xml</dc:format>
    <dc:type
       rdf:resource="http://purl.org/dc/dcmitype/StillImage" />
    <dc:title></dc:title>
  </cc:Work>
</rdf:RDF>
</metadata>
  <path
     d="M 267.52114,0 C 119.75008,0 0,27.16308 0,60.68221 v 141.08428 c 0,33.5191 119.75008,60.68215 267.52114,60.68215 H 889.4997 c 147.7711,0 267.5213,-27.16305 267.5213,-60.68215 V 60.68221 C 1157.021,27.16308 1037.2708,0 889.4997,0 Z"
     id="path3077-9"
     inkscape:connector-curvature="0"
     style="fill:#ffffff;fill-rule:nonzero;stroke-width:1.62886536" />
  <g
     id="g861"
     transform="translate(121.60775,-4)">
    <title
       id="title853">Layer 1</title>
    <path
       d="m 141.91339,-1e-6 c -147.7710569,0 -267.52114,27.163078 -267.52114,60.682206 V 201.76649 c 0,33.5191 119.7500845,60.68215 267.52114,60.68215 h 621.97856 c 147.77113,0 267.52125,-27.16305 267.52125,-60.68215 V 60.682205 C 1031.4132,27.163077 911.66308,-9.9999998e-7 763.89195,-9.9999998e-7 Z"
       id="path3077"
       inkscape:connector-curvature="0"
       style="fill:#191818;fill-rule:nonzero;stroke-width:1.62886536" />
    <g
       display="inline"
       id="layer2"
       style="display:inline">
      <path
         stroke-miterlimit="4"
         clip-path="url(#clipPath3882)"
         d="M -462.96878,1.428571 C -533.13721,1.428571 -590,58.291362 -590,128.45984 v 295.34369 c 0,70.16845 56.86279,127.03131 127.03122,127.03131 H -167.625 c 70.168457,0 127.03125,-56.86286 127.03125,-127.03131 V 128.45984 C -40.59375,58.291362 -97.456543,1.428571 -167.625,1.428571 Z"
         id="path3872"
         inkscape:connector-curvature="0"
         style="fill:none;stroke:#000000;stroke-width:20;stroke-miterlimit:4;filter:url(#filter3874)" />
    </g>
  </g>
  <flowRoot
     xml:space="preserve"
     id="flowRoot4562"
     style="font-style:normal;font-weight:normal;font-size:40px;line-height:1.25;font-family:sans-serif;letter-spacing:0px;word-spacing:0px;fill:#000000;fill-opacity:1;stroke:none"
     transform="translate(-3.9999963,-4)"><flowRegion
       id="flowRegion4564"><rect
         id="rect4566"
         width="261.42752"
         height="370.69604"
         x="290.02115"
         y="86.802048" /></flowRegion><flowPara
       id="flowPara4568" /></flowRoot>  <path
     id="path3862-2"
     d="m 250.15594,14.544398 c -122.54966,0 -220.304592,20.696041 -220.304592,46.641479 V 75.999738 C 138.13841,78.927265 189.12126,87.863063 297.9128,89.705822 c 155.27229,2.629759 211.14185,2.632051 353.993,-7.887866 142.85316,-10.519452 -31.02497,-28.93462 428.5857,-24.989995 10.4995,0.09021 20.8536,0.118275 31.1119,0.187314 -9.8233,-23.957701 -103.5156,-42.470876 -219.41988,-42.470876 z"
     style="fill:url(#linearGradient3858-0);fill-rule:nonzero;stroke-width:1.62437344"
     inkscape:connector-curvature="0" />
  <text
     xml:space="preserve"
     style="font-style:normal;font-variant:normal;font-weight:bold;font-stretch:normal;font-size:40px;line-height:1.25;font-family:sans-serif;-inkscape-font-specification:'sans-serif Bold';letter-spacing:0px;word-spacing:0px;fill:#000000;fill-opacity:1;stroke:none"
     x="200.24025"
     y="187.98578"
     id="text4600"><tspan
       sodipodi:role="line"
       id="tspan4598"
       x="200.24025"
       y="187.98578"
       style="font-size:160px;fill:#ffffff">Sampler</tspan></text>
  <path
     id="path3862-2-6"
     d="m 250.1559,14.544398 c -122.54966,0 -220.304596,20.696041 -220.304596,46.641479 v 14.813861 c 108.287066,2.927527 159.269916,11.863325 268.061456,13.706084 155.27229,2.629759 211.14185,2.632051 353.993,-7.887866 142.85316,-10.519452 -31.02497,-28.93462 428.58574,-24.989995 10.4995,0.09021 20.8536,0.118275 31.1119,0.187314 -9.8233,-23.957701 -103.5156,-42.470876 -219.41992,-42.470876 z"
     style="fill:url(#linearGradient3858-0-8);fill-rule:nonzero;stroke-width:1.62437344"
     inkscape:connector-curvature="0" />
</svg>
