<?xml version="1.0" encoding="UTF-8" standalone="no"?>
<svg
   xmlns:dc="http://purl.org/dc/elements/1.1/"
   xmlns:cc="http://creativecommons.org/ns#"
   xmlns:rdf="http://www.w3.org/1999/02/22-rdf-syntax-ns#"
   xmlns:svg="http://www.w3.org/2000/svg"
   xmlns="http://www.w3.org/2000/svg"
   xmlns:xlink="http://www.w3.org/1999/xlink"
   xmlns:sodipodi="http://sodipodi.sourceforge.net/DTD/sodipodi-0.dtd"
   xmlns:inkscape="http://www.inkscape.org/namespaces/inkscape"
   width="819.00336"
   height="502.43094"
   version="1.1"
   id="svg863"
   sodipodi:docname="Button_150_5.svg"
   inkscape:version="0.92.4 (5da689c313, 2019-01-14)">
  <sodipodi:namedview
     pagecolor="#ffffff"
     bordercolor="#666666"
     borderopacity="1"
     objecttolerance="10"
     gridtolerance="10"
     guidetolerance="10"
     inkscape:pageopacity="0"
     inkscape:pageshadow="2"
     inkscape:window-width="1366"
     inkscape:window-height="705"
     id="namedview865"
     showgrid="false"
     inkscape:zoom="0.97923895"
     inkscape:cx="400.31087"
     inkscape:cy="253.97805"
     inkscape:window-x="-8"
     inkscape:window-y="-8"
     inkscape:window-maximized="1"
     inkscape:current-layer="svg863"
     fit-margin-top="0"
     fit-margin-left="0"
     fit-margin-right="0"
     fit-margin-bottom="0" />
  <defs
     id="defs850">
    <filter
       id="filter3874"
       style="color-interpolation-filters:sRGB">
      <feGaussianBlur
         id="feGaussianBlur3876"
         stdDeviation="13.735156" />
    </filter>
    <clipPath
       id="clipPath3882"
       clipPathUnits="userSpaceOnUse">
      <path
         id="path3884"
         d="M 127.03123,-1.428571 C 56.86282,-1.428571 1.7e-5,55.434223 1.7e-5,125.60269 v 295.34372 c 0,70.16846 56.862803,127.03125 127.031213,127.03125 h 295.34383 c 70.16846,0 127.03113,-56.86279 127.03113,-127.03125 V 125.60269 c 0,-70.168466 -56.86267,-127.031261 -127.03113,-127.031261 z"
         inkscape:connector-curvature="0"
         style="fill:none;stroke-width:20" />
    </clipPath>
    <linearGradient
       id="linearGradient3852">
      <stop
         stop-color="#dbe3db"
         id="stop3854"
         offset="0" />
      <stop
         stop-color="#dbe3db"
         stop-opacity="0"
         id="stop3856"
         offset="1" />
    </linearGradient>
    <linearGradient
       y2="427.99649"
       x2="171.30943"
       y1="8.1305742"
       x1="171.03052"
       id="linearGradient3858"
       xlink:href="#linearGradient3852"
       gradientTransform="matrix(2.658398,0,0,0.57841726,-142.23811,0)"
       gradientUnits="userSpaceOnUse" />
    <linearGradient
       y2="1098.504"
       x2="87.243507"
       y1="1299.3474"
       x1="84.775253"
       id="linearGradient3864"
       xlink:href="#linearGradient3852"
       gradientTransform="matrix(3.6508695,0,0,0.39832337,-111.46536,-24.508829)"
       gradientUnits="userSpaceOnUse" />
    <linearGradient
       y2="427.99649"
       x2="171.30943"
       y1="8.1305742"
       x1="171.03052"
       id="linearGradient3858-0"
       xlink:href="#linearGradient3852"
       gradientTransform="matrix(2.658398,0,0,0.57841726,-16.630356,-2e-6)"
       gradientUnits="userSpaceOnUse" />
  </defs>
  <metadata
     id="metadata7">image/svg+xml<rdf:RDF>
  <cc:Work
     rdf:about="">
    <dc:format>image/svg+xml</dc:format>
    <dc:type
       rdf:resource="http://purl.org/dc/dcmitype/StillImage" />
    <dc:title></dc:title>
  </cc:Work>
</rdf:RDF>
</metadata>
  <g
     id="g861"
     transform="translate(125.60775)">
    <title
       id="title853">Layer 1</title>
    <path
       d="m 129.88838,61.857143 c -33.138784,0 -58.03124,24.892475 -58.03124,58.031257 v 295.34375 c 0,33.13879 24.892456,58.03125 58.03124,58.03125 h 295.34377 c 33.13879,0 58.03125,-24.89246 58.03125,-58.03125 V 119.8884 c 0,-33.138782 -24.89246,-58.031257 -58.03125,-58.031257 z"
       id="path3075"
       inkscape:connector-curvature="0"
       style="fill:#212020;fill-rule:nonzero;stroke-width:1.62399995" />
    <path
       d="M 63.758495,-9.9999996e-7 C -40.842025,-9.9999996e-7 -125.60775,52.000918 -125.60775,116.16984 v 270.09134 c 0,64.16889 84.765726,116.16975 189.366245,116.16975 H 504.02928 c 104.60057,0 189.36634,-52.00086 189.36634,-116.16975 V 116.16984 C 693.39562,52.000918 608.62985,-9.999999e-7 504.02928,-9.999999e-7 Z"
       id="path3077"
       inkscape:connector-curvature="0"
       style="fill:#191818;fill-rule:nonzero;stroke-width:1.89615333" />
    <path
       id="path3862"
       d="m 64.076534,18.544399 c -86.685771,0 -155.832939,44.968979 -155.832939,101.344001 v 32.188 c 76.597102,6.36102 112.659925,25.77699 189.613855,29.78099 109.83219,5.71402 149.35165,5.719 250.39774,-17.13899 101.04749,-22.85698 -21.94559,-62.87001 303.16106,-54.29901 7.42684,0.196 14.75084,0.25699 22.00706,0.407 C 666.47473,58.770383 600.20129,18.544401 518.21616,18.544401 H 64.076534 Z"
       style="fill:url(#linearGradient3858);fill-rule:nonzero;stroke-width:2.01380134"
       inkscape:connector-curvature="0" />
    <path
       id="path3079"
       d="m 621.82876,407.50899 c -18.65151,-0.0565 -31.78534,5.37946 -94.88833,19.84375 -112.18315,25.7143 -290.85875,34.28571 -307.4784,20 -16.61977,-14.2857 -99.71838,-22.85266 -174.507201,-14.28125 -43.5452111,4.99066 -25.107339,22.56153 -48.0348943,34.12497 18.7521583,5.89292 39.6753013,9.15634 61.8046023,9.15634 H 488.22165 c 65.31434,0 120.11924,-28.54327 139.69654,-68.65631 -2.1267,-0.12097 -4.14522,-0.18158 -6.08943,-0.1875 z"
       style="fill:url(#linearGradient3864);fill-rule:nonzero;stroke-width:1.95840299"
       inkscape:connector-curvature="0" />
    <g
       display="inline"
       id="layer2"
       style="display:inline">
      <path
         stroke-miterlimit="4"
         clip-path="url(#clipPath3882)"
         d="M -462.96878,1.428571 C -533.13721,1.428571 -590,58.291362 -590,128.45984 v 295.34369 c 0,70.16845 56.86279,127.03131 127.03122,127.03131 H -167.625 c 70.168457,0 127.03125,-56.86286 127.03125,-127.03131 V 128.45984 C -40.59375,58.291362 -97.456543,1.428571 -167.625,1.428571 Z"
         id="path3872"
         inkscape:connector-curvature="0"
         style="fill:none;stroke:#000000;stroke-width:20;stroke-miterlimit:4;filter:url(#filter3874)" />
    </g>
  </g>
  <flowRoot
     xml:space="preserve"
     id="flowRoot4562"
     style="fill:black;fill-opacity:1;stroke:none;font-family:sans-serif;font-style:normal;font-weight:normal;font-size:40px;line-height:1.25;letter-spacing:0px;word-spacing:0px"><flowRegion
       id="flowRegion4564"><rect
         id="rect4566"
         width="261.42752"
         height="370.69604"
         x="290.02115"
         y="86.802048" /></flowRegion><flowPara
       id="flowPara4568"></flowPara></flowRoot>  <text
     xml:space="preserve"
     style="font-style:normal;font-weight:normal;font-size:40px;line-height:1.25;font-family:sans-serif;letter-spacing:0px;word-spacing:0px;fill:#000000;fill-opacity:1;stroke:none"
     x="276.74554"
     y="419.71365"
     id="text4572"><tspan
       sodipodi:role="line"
       id="tspan4570"
       x="276.74554"
       y="419.71365"
       style="font-style:normal;font-variant:normal;font-weight:bold;font-stretch:normal;font-size:466.66665649px;font-family:Arial;-inkscape-font-specification:'Arial Bold';fill:#ffffff">5</tspan></text>
  <path
     id="path3862-2"
     d="m 189.68428,18.544397 c -86.68577,0 -155.832936,44.968979 -155.832936,101.344003 v 32.188 c 76.597096,6.36102 112.659926,25.77699 189.613856,29.78099 109.8322,5.71402 149.35165,5.719 250.39773,-17.13899 101.04749,-22.85698 -21.94558,-62.87001 303.16106,-54.29901 7.42684,0.196 14.75084,0.25699 22.00706,0.407 C 792.08247,58.770381 725.80903,18.544399 643.8239,18.544399 H 189.68428 Z"
     style="fill:url(#linearGradient3858-0);fill-rule:nonzero;stroke-width:2.01380134"
     inkscape:connector-curvature="0" />
</svg>
