<?xml version="1.0" encoding="UTF-8" standalone="no"?>
<svg
   xmlns:dc="http://purl.org/dc/elements/1.1/"
   xmlns:cc="http://creativecommons.org/ns#"
   xmlns:rdf="http://www.w3.org/1999/02/22-rdf-syntax-ns#"
   xmlns:svg="http://www.w3.org/2000/svg"
   xmlns="http://www.w3.org/2000/svg"
   xmlns:xlink="http://www.w3.org/1999/xlink"
   xmlns:sodipodi="http://sodipodi.sourceforge.net/DTD/sodipodi-0.dtd"
   xmlns:inkscape="http://www.inkscape.org/namespaces/inkscape"
   width="549.40625"
   height="549.40625"
   version="1.1"
   id="svg863"
   sodipodi:docname="Button_Disk_Channel.svg"
   inkscape:version="0.92.4 (5da689c313, 2019-01-14)"
   inkscape:export-filename="D:\Desktop\looper\LooperApp\Resources\drawable\Button_Disk_Setlist_svg.png"
   inkscape:export-xdpi="96"
   inkscape:export-ydpi="96">
  <sodipodi:namedview
     pagecolor="#ffffff"
     bordercolor="#666666"
     borderopacity="1"
     objecttolerance="10"
     gridtolerance="10"
     guidetolerance="10"
     inkscape:pageopacity="0"
     inkscape:pageshadow="2"
     inkscape:window-width="1920"
     inkscape:window-height="1137"
     id="namedview865"
     showgrid="false"
     inkscape:zoom="1.05"
     inkscape:cx="361.54578"
     inkscape:cy="274.70312"
     inkscape:window-x="-8"
     inkscape:window-y="-8"
     inkscape:window-maximized="1"
     inkscape:current-layer="svg863"
     showguides="true"
     inkscape:guide-bbox="true">
    <sodipodi:guide
       position="87.619048,710.47619"
       orientation="0,1"
       id="guide65"
       inkscape:locked="false" />
  </sodipodi:namedview>
  <defs
     id="defs850">
    <filter
       color-interpolation-filters="sRGB"
       id="filter3874">
      <feGaussianBlur
         id="feGaussianBlur3876"
         stdDeviation="13.735156" />
    </filter>
    <clipPath
       id="clipPath3882"
       clipPathUnits="userSpaceOnUse">
      <path
         fill="none"
         stroke-width="20"
         id="path3884"
         d="m127.031235,-1.428571c-70.168415,0 -127.031218,56.862794 -127.031218,127.031263l0,295.343719c0,70.168457 56.862803,127.03125 127.031218,127.03125l295.343826,0c70.168457,0 127.031128,-56.862793 127.031128,-127.03125l0,-295.343719c0,-70.168468 -56.862671,-127.031263 -127.031128,-127.031263l-295.343826,0z" />
    </clipPath>
    <linearGradient
       id="linearGradient3852">
      <stop
         stop-color="#dbe3db"
         id="stop3854"
         offset="0" />
      <stop
         stop-color="#dbe3db"
         stop-opacity="0"
         id="stop3856"
         offset="1" />
    </linearGradient>
    <linearGradient
       y2="1.375566"
       x2="0.529192"
       y1="-0.083138"
       x1="0.528223"
       id="linearGradient3858"
       xlink:href="#linearGradient3852" />
    <linearGradient
       y2="0.080507"
       x2="0.333011"
       y1="1.242559"
       x1="0.31873"
       id="linearGradient3864"
       xlink:href="#linearGradient3852" />
    <linearGradient
       gradientUnits="userSpaceOnUse"
       gradientTransform="matrix(1.7288557,0,0,0.57841726,1.9999999e-6,-5e-6)"
       y2="427.99648"
       x2="171.30943"
       y1="8.1305747"
       x1="171.03052"
       id="linearGradient3858-8"
       xlink:href="#linearGradient3852" />
    <linearGradient
       gradientUnits="userSpaceOnUse"
       gradientTransform="matrix(1.7288557,0,0,0.57841726,-157.0561,22.797815)"
       y2="427.99648"
       x2="171.30943"
       y1="8.1305747"
       x1="171.03052"
       id="linearGradient3858-0"
       xlink:href="#linearGradient3852" />
    <linearGradient
       gradientUnits="userSpaceOnUse"
       gradientTransform="matrix(1.7288557,0,0,0.57841726,2.9999999e-6,2e-6)"
       y2="427.99649"
       x2="171.30943"
       y1="8.1305742"
       x1="171.03052"
       id="linearGradient3858-8-6"
       xlink:href="#linearGradient3852" />
    <linearGradient
       gradientUnits="userSpaceOnUse"
       gradientTransform="matrix(2.5105231,0,0,0.39832337,4e-6,-4e-6)"
       y2="1098.504"
       x2="87.243508"
       y1="1299.3474"
       x1="84.775249"
       id="linearGradient3864-3"
       xlink:href="#linearGradient3852" />
    <linearGradient
       gradientUnits="userSpaceOnUse"
       gradientTransform="matrix(1.7288557,0,0,0.57841726,2.9999999e-6,2e-6)"
       y2="427.99649"
       x2="171.30943"
       y1="8.1305742"
       x1="171.03052"
       id="linearGradient3858-8-3"
       xlink:href="#linearGradient3852" />
    <linearGradient
       gradientUnits="userSpaceOnUse"
       gradientTransform="matrix(2.5105231,0,0,0.39832337,4e-6,-6e-6)"
       y2="1098.504"
       x2="87.243508"
       y1="1299.3474"
       x1="84.775249"
       id="linearGradient3864-0"
       xlink:href="#linearGradient3852" />
  </defs>
  <metadata
     id="metadata7">image/svg+xml<rdf:RDF>
  <cc:Work
     rdf:about="">
    <dc:format>image/svg+xml</dc:format>
    <dc:type
       rdf:resource="http://purl.org/dc/dcmitype/StillImage" />
    <dc:title></dc:title>
  </cc:Work>
</rdf:RDF>
</metadata>
  <g
     id="g861">
    <title
       id="title853">Layer 1</title>
    <path
       d="m129.888382,61.857143c-33.138786,0 -58.031242,24.892475 -58.031242,58.031254l0,295.34375c0,33.138794 24.892456,58.03125 58.031242,58.03125l295.343765,0c33.138794,0 58.03125,-24.892456 58.03125,-58.03125l0,-295.34375c0,-33.138779 -24.892456,-58.031254 -58.03125,-58.031254l-295.343765,0z"
       id="path3075"
       stroke-width="1.624"
       fill-rule="nonzero"
       fill="#212020" />
    <path
       d="m127.031219,-0.000001c-70.168427,0 -127.031219,56.862794 -127.031219,127.031251l0,295.343781c0,70.168427 56.862793,127.031158 127.031219,127.031158l295.34375,0c70.168457,0 127.031281,-56.862732 127.031281,-127.031158l0,-295.343781c0,-70.168457 -56.862823,-127.031251 -127.031281,-127.031251l-295.34375,0z"
       id="path3077"
       stroke-width="1.624"
       fill-rule="nonzero"
       fill="#191818" />
    <path
       id="path3862"
       d="m134.174133,18.544399c-56.375,0 -101.34399,44.968979 -101.34399,101.343998l0,32.188004c49.813961,6.361023 73.266964,25.776993 123.312984,29.780991c71.427979,5.71402 97.128967,5.718994 162.843018,-17.138992c65.714966,-22.856979 -14.272034,-62.87001 197.156982,-54.299011c4.829956,0.195999 9.593018,0.256989 14.312012,0.406998c-4.518921,-52.056004 -47.619019,-92.281986 -100.937012,-92.281986l-295.343994,0z"
       style="paint-order:markers fill stroke"
       stroke-width="1.624"
       fill-rule="nonzero"
       fill="url(#linearGradient3858)" />
    <path
       id="path3079"
       d="m504.250244,432.017822c-12.825714,-0.056519 -21.857208,5.379456 -65.250031,19.84375c-77.142822,25.714294 -200.009232,34.285706 -211.437759,20c-11.428589,-14.285706 -68.571411,-22.852661 -120,-14.28125c-29.943893,4.990662 -17.265076,22.561523 -33.031227,34.124969c12.894936,5.892914 27.282753,9.156342 42.499977,9.156342l295.344009,0c44.913452,0 82.600098,-28.543274 96.062439,-68.656311c-1.462433,-0.120972 -2.850464,-0.18158 -4.187408,-0.1875z"
       stroke-width="1.624"
       fill-rule="nonzero"
       fill="url(#linearGradient3864)" />
    <g
       display="inline"
       id="layer2">
      <path
         stroke-miterlimit="4"
         clip-path="url(#clipPath3882)"
         d="m-462.968781,1.428571c-70.168427,0 -127.031219,56.862791 -127.031219,127.031267l0,295.343689c0,70.168457 56.862793,127.031311 127.031219,127.031311l295.343781,0c70.168457,0 127.03125,-56.862854 127.03125,-127.031311l0,-295.343689c0,-70.168476 -56.862793,-127.031267 -127.03125,-127.031267l-295.343781,0z"
         id="path3872"
         filter="url(#filter3874)"
         stroke-width="20"
         stroke="#000000"
         fill="none" />
    </g>
    <path
       inkscape:connector-curvature="0"
       style="fill:url(#linearGradient3864-0);fill-rule:nonzero;stroke-width:1.62399995"
       id="path3079-9"
       d="m 504.25024,432.01782 c -12.82571,-0.0565 -21.8572,5.37946 -65.25003,19.84375 -77.14282,25.7143 -200.00923,34.28571 -211.43776,20 -11.42858,-14.2857 -68.57141,-22.85266 -120,-14.28125 -29.943886,4.99066 -17.265069,22.56153 -33.03122,34.12497 12.894936,5.89292 27.28275,9.15634 42.49997,9.15634 h 295.34401 c 44.91346,0 82.6001,-28.54327 96.06244,-68.65631 -1.46243,-0.12097 -2.85046,-0.18158 -4.18741,-0.1875 z" />
  </g>
  <path
     inkscape:connector-curvature="0"
     id="path3862-3"
     d="m 134.17413,18.544394 c -56.374998,0 -101.343988,44.968979 -101.343988,101.344006 v 32.188 c 49.81396,6.36102 73.266968,25.77699 123.312988,29.78099 71.42798,5.71402 97.12896,5.719 162.84301,-17.13899 65.71497,-22.85698 -14.27203,-62.87001 197.15699,-54.29901 4.82995,0.196 9.59301,0.25699 14.31201,0.407 C 525.93622,58.770373 482.83612,18.544396 429.51813,18.544396 h -295.344 z"
     style="fill:url(#linearGradient3858-8);fill-rule:nonzero;stroke-width:1.62399995;paint-order:markers fill stroke" />
  <g
     transform="matrix(2.4009662,0,0,2.5385323,13.060754,-11.502531)"
     id="g3"
     style="fill:#ffcc00">
    <path
       inkscape:connector-curvature="0"
       id="path1"
       transform="matrix(4.3125,0,0,4.3125,59,63.3125)"
       d="m 26.899994,0 h 2 V 14.100006 C 30.699997,14.5 32,16.199997 32,18.100006 c 0,1.899994 -1.300003,3.599991 -3.100006,4 v 7.799988 h -2 v -7.799988 c -1.799988,-0.400009 -3.099991,-2.100006 -3.099991,-4 0,-1.900009 1.300003,-3.600006 3.099991,-4 z M 15,0 h 2 v 10.199997 c 1.800003,0.400009 3.100006,2.100006 3.100006,4 0,1.900009 -1.300003,3.600006 -3.100006,4 V 30 H 15 V 18.199997 c -1.800003,-0.399994 -3.100006,-2.099991 -3.100006,-4 0,-1.899994 1.300003,-3.599991 3.100006,-4 z M 3.1000061,0 h 2 v 3.8000031 c 1.7999878,0.3999938 3.0999908,2.0999908 3.0999908,4 0,1.8999938 -1.300003,3.5999909 -3.0999908,3.9999999 v 18.099991 h -2 V 11.800003 C 1.3000031,11.399994 0,9.8000031 0,7.8000031 c 0,-1.9000092 1.3000031,-3.6000062 3.1000061,-4 z"
       style="fill:#ffcc00" />
  </g>
  <g
     inkscape:groupmode="layer"
     id="layer1"
     inkscape:label="Layer 1">
    <path
       inkscape:connector-curvature="0"
       d="M 90.573969,78.066387 H 267.99803 l 18.25141,17.84986 -0.8485,179.348883 -194.402523,-0.85007 z"
       id="path551"
       style="fill:#00007b;fill-opacity:1;fill-rule:evenodd;stroke:#000000;stroke-width:1.87839162;stroke-linecap:butt;stroke-linejoin:miter;stroke-dasharray:none;stroke-opacity:1" />
    <path
       inkscape:connector-curvature="0"
       d="m 250.17061,78.981231 v 52.903439 c 0,0 -1.27349,7.83707 -8.06496,10.28651 -6.79097,0.48932 -99.32303,0.48989 -99.32303,0.48989 -0.4245,0.48989 -5.94247,-3.91911 -6.36697,-6.85786 -0.4245,-2.93934 -0.84899,-3.91854 -0.84899,-3.91854 0,0 0.84899,-53.39327 0.42449,-53.39327 -0.42449,0 114.60396,0.489831 114.17946,0.489831 z"
       id="path552"
       sodipodi:nodetypes="cccccccc"
       style="fill:#a3a6a6;fill-opacity:1;fill-rule:evenodd;stroke:#000000;stroke-width:1.25226152;stroke-linecap:butt;stroke-linejoin:miter;stroke-dasharray:none;stroke-opacity:1" />
    <rect
       height="93.074371"
       id="rect553"
       style="font-size:12px;fill:#ffffff;fill-opacity:1;fill-rule:evenodd;stroke-width:0.50090446pt"
       width="160.87"
       x="109.25017"
       y="176.24075" />
    <path
       inkscape:connector-curvature="0"
       d="m 231.9187,89.116321 c -0.4245,0 -26.31638,0 -26.31638,0 v 44.624829 h 26.31638 z"
       id="path555"
       style="fill:#00007b;fill-opacity:1;fill-rule:evenodd;stroke:#000000;stroke-width:1.25226116;stroke-linecap:butt;stroke-linejoin:miter;stroke-dasharray:none;stroke-opacity:1" />
    <rect
       height="27.624804"
       id="rect556"
       style="font-size:12px;fill:#dd8080;fill-opacity:1;fill-rule:evenodd;stroke-width:0.50090446pt"
       width="160.87001"
       x="109.25017"
       y="176.24074" />
    <rect
       height="3.399981"
       id="rect557"
       style="font-size:12px;fill:#dd8080;fill-opacity:1;fill-rule:evenodd;stroke-width:0.50090446pt"
       width="143.89165"
       x="116.89042"
       y="219.16542" />
    <rect
       height="2.9749794"
       id="rect558"
       style="font-size:12px;fill:#dd8080;fill-opacity:1;fill-rule:evenodd;stroke-width:0.50090446pt"
       width="143.89165"
       x="116.46597"
       y="237.0153" />
    <rect
       height="2.9749794"
       id="rect559"
       style="font-size:12px;fill:#df8080;fill-opacity:1;fill-rule:evenodd;stroke-width:0.50090446pt"
       width="143.46718"
       x="116.89042"
       y="254.86517" />
    <rect
       height="2.5499704"
       id="rect567"
       style="font-size:12px;fill:#000000;fill-opacity:1;fill-rule:evenodd;stroke-width:0.50090446pt"
       width="39.474697"
       x="144.0558"
       y="88.691315" />
    <rect
       height="2.5499897"
       id="rect568"
       style="font-size:12px;fill:#000000;fill-opacity:1;fill-rule:evenodd;stroke-width:0.50090446pt"
       width="29.287687"
       x="144.90472"
       y="95.066261" />
    <rect
       height="2.5499704"
       id="rect569"
       style="font-size:12px;fill:#180003;fill-opacity:1;fill-rule:evenodd;stroke-width:0.50090446pt"
       width="38.201321"
       x="144.90472"
       y="101.44122" />
    <rect
       height="2.9749949"
       id="rect570"
       style="font-size:12px;fill:#ffffff;fill-opacity:1;fill-rule:evenodd;stroke-width:0.50090446pt"
       width="57.301971"
       x="117.31488"
       y="182.19067" />
    <rect
       height="2.549978"
       id="rect571"
       style="font-size:12px;fill:#ffffff;fill-opacity:1;fill-rule:evenodd;stroke-width:0.50090446pt"
       width="22.071871"
       x="117.73934"
       y="190.26562" />
    <rect
       height="2.5499718"
       id="rect572"
       style="font-size:12px;fill:#ffffff;fill-opacity:1;fill-rule:evenodd;stroke-width:0.50090446pt"
       width="16.978369"
       x="153.39391"
       y="190.26564" />
    <path
       inkscape:connector-curvature="0"
       d="m 139.50427,130.31129 c 0.79193,-2.3793 -0.79242,-47.584442 2.37579,-47.584442 3.16822,0 68.91035,-0.793034 68.91035,-0.793034 -30.09881,3.172284 -64.15777,2.379201 -71.28614,48.377476 z"
       id="path566"
       sodipodi:nodetypes="cccc"
       style="fill:#ffffff;fill-opacity:0.5;fill-rule:evenodd;stroke:none;stroke-width:0.50090446pt;stroke-linecap:butt;stroke-linejoin:miter;stroke-opacity:1" />
    <path
       inkscape:connector-curvature="0"
       d="M 90.573977,78.066393 H 267.99804 l 18.25141,17.84986 -0.8485,179.348877 -194.402525,-0.85007 z"
       id="path551-1"
       style="fill:#00007b;fill-opacity:1;fill-rule:evenodd;stroke:#000000;stroke-width:1.87839162;stroke-linecap:butt;stroke-linejoin:miter;stroke-dasharray:none;stroke-opacity:1" />
    <path
       inkscape:connector-curvature="0"
       d="m 250.17062,78.981233 v 52.903437 c 0,0 -1.27349,7.83707 -8.06496,10.28651 -6.79097,0.48932 -99.32303,0.48989 -99.32303,0.48989 -0.4245,0.48989 -5.94247,-3.91911 -6.36697,-6.85786 -0.4245,-2.93934 -0.84899,-3.91854 -0.84899,-3.91854 0,0 0.84899,-53.393267 0.42449,-53.393267 -0.42449,0 114.60396,0.48983 114.17946,0.48983 z"
       id="path552-5"
       sodipodi:nodetypes="cccccccc"
       style="fill:#a3a6a6;fill-opacity:1;fill-rule:evenodd;stroke:#000000;stroke-width:1.25226152;stroke-linecap:butt;stroke-linejoin:miter;stroke-dasharray:none;stroke-opacity:1" />
    <rect
       height="93.074371"
       id="rect553-8"
       style="font-size:12px;fill:#ffffff;fill-opacity:1;fill-rule:evenodd;stroke-width:0.50090446pt"
       width="160.87"
       x="109.25018"
       y="176.24077" />
    <path
       inkscape:connector-curvature="0"
       d="m 231.91871,89.116323 c -0.4245,0 -26.31638,0 -26.31638,0 v 44.624827 h 26.31638 z"
       id="path555-2"
       style="fill:#00007b;fill-opacity:1;fill-rule:evenodd;stroke:#000000;stroke-width:1.25226116;stroke-linecap:butt;stroke-linejoin:miter;stroke-dasharray:none;stroke-opacity:1" />
    <rect
       height="27.624804"
       id="rect556-6"
       style="font-size:12px;fill:#dd8080;fill-opacity:1;fill-rule:evenodd;stroke-width:0.50090446pt"
       width="160.87001"
       x="109.25018"
       y="176.24075" />
    <rect
       height="3.399981"
       id="rect557-0"
       style="font-size:12px;fill:#dd8080;fill-opacity:1;fill-rule:evenodd;stroke-width:0.50090446pt"
       width="143.89165"
       x="116.89043"
       y="219.16542" />
    <rect
       height="2.9749794"
       id="rect558-3"
       style="font-size:12px;fill:#dd8080;fill-opacity:1;fill-rule:evenodd;stroke-width:0.50090446pt"
       width="143.89165"
       x="116.46598"
       y="237.0153" />
    <rect
       height="2.9749794"
       id="rect559-7"
       style="font-size:12px;fill:#df8080;fill-opacity:1;fill-rule:evenodd;stroke-width:0.50090446pt"
       width="143.46718"
       x="116.89043"
       y="254.86519" />
    <rect
       height="2.5499704"
       id="rect567-8"
       style="font-size:12px;fill:#000000;fill-opacity:1;fill-rule:evenodd;stroke-width:0.50090446pt"
       width="39.474697"
       x="144.05582"
       y="88.691315" />
    <rect
       height="2.5499897"
       id="rect568-5"
       style="font-size:12px;fill:#000000;fill-opacity:1;fill-rule:evenodd;stroke-width:0.50090446pt"
       width="29.287687"
       x="144.90474"
       y="95.066269" />
    <rect
       height="2.5499704"
       id="rect569-8"
       style="font-size:12px;fill:#180003;fill-opacity:1;fill-rule:evenodd;stroke-width:0.50090446pt"
       width="38.201321"
       x="144.90474"
       y="101.44122" />
    <rect
       height="2.9749949"
       id="rect570-7"
       style="font-size:12px;fill:#ffffff;fill-opacity:1;fill-rule:evenodd;stroke-width:0.50090446pt"
       width="57.301971"
       x="117.31489"
       y="182.19067" />
    <rect
       height="2.549978"
       id="rect571-9"
       style="font-size:12px;fill:#ffffff;fill-opacity:1;fill-rule:evenodd;stroke-width:0.50090446pt"
       width="22.071871"
       x="117.73935"
       y="190.26564" />
    <rect
       height="2.5499718"
       id="rect572-8"
       style="font-size:12px;fill:#ffffff;fill-opacity:1;fill-rule:evenodd;stroke-width:0.50090446pt"
       width="16.978369"
       x="153.39392"
       y="190.26564" />
    <path
       inkscape:connector-curvature="0"
       d="m 139.50428,130.31129 c 0.79193,-2.3793 -0.79242,-47.584437 2.37579,-47.584437 3.16822,0 68.91035,-0.79303 68.91035,-0.79303 -30.09881,3.17228 -64.15777,2.3792 -71.28614,48.377467 z"
       id="path566-8"
       sodipodi:nodetypes="cccc"
       style="fill:#ffffff;fill-opacity:0.5;fill-rule:evenodd;stroke:none;stroke-width:0.50090446pt;stroke-linecap:butt;stroke-linejoin:miter;stroke-opacity:1" />
  </g>
  <path
     inkscape:connector-curvature="0"
     id="path3862-3-7"
     d="m 134.17413,18.544401 c -56.374997,0 -101.343987,44.968979 -101.343987,101.344009 v 32.188 c 49.81396,6.36102 73.266967,25.77699 123.312987,29.78099 71.42798,5.71402 97.12896,5.719 162.84301,-17.13899 65.71497,-22.85698 -14.27203,-62.87001 197.15699,-54.29901 4.82995,0.196 9.59301,0.25699 14.31201,0.407 C 525.93622,58.77038 482.83612,18.544403 429.51813,18.544403 h -295.344 z"
     style="fill:url(#linearGradient3858-8-3);fill-rule:nonzero;stroke-width:1.62399995;paint-order:markers fill stroke" />
</svg>
